<svg width="1010" height="1010" viewBox="0 0 1010 1010" fill="none" xmlns="http://www.w3.org/2000/svg" role="img" aria-label="Georges Langlois logo">
  <path d="M505 1005C730 1005 905 855.78 905 680C905 634.116 893.295 590.454 872.182 550.874C874.041 535.843 875 520.534 875 505C875 300.655 709.345 135 505 135L501.768 135.015C365.187 136.226 255 214.105 255 310C255 381.761 316.705 443.433 405 470.438L405 405C405 385 395 355 380 355L505 355L505 655C284.086 655 105 509.493 105 330C105 151.209 282.69 6.13749 502.413 5.00688L505 5.00005C781.142 5.00007 1005 228.858 1005 505C1005 776.577 780 1005 505 1005Z" fill="#326446"/>
  <path d="M505 5.00183C280 5.00179 105 154.222 105 330.002C105 375.886 116.704 419.548 137.817 459.128C135.959 474.158 135 489.468 135 505.002C135 709.347 300.655 875.002 505 875.002L508.231 874.987C644.813 873.776 755 795.897 755 700.002C755 628.241 693.295 566.569 605 539.564L605 605.002C605 625.002 615 655.002 630 655.002L505 655.002L505 355.002C725.914 355.002 905 500.509 905 680.002C905 858.793 727.31 1003.86 507.587 1004.99L505 1005C228.858 1005 4.99996 781.144 5 505.002C5.00005 233.425 230 5.00178 505 5.00183Z" fill="white"/>
  <path opacity="0.12" d="M273.159 205.001C242.979 236.483 225.367 274.391 225.367 315.184C225.367 400.412 302.244 473.041 409.999 500.801V545.001C293.597 515.518 209.999 434.515 209.999 339.205C209.999 288.574 233.59 241.979 273.159 205.001Z" fill="white"/>
  <path opacity="0.12" d="M736.84 805.002C767.02 773.519 784.632 735.612 784.632 694.818C784.632 609.591 707.755 536.961 600 509.202L600 465.002C716.402 494.484 800 575.487 800 670.797C800 721.429 776.409 768.024 736.84 805.002Z" fill="white"/>
  <path d="M504.653 1005C788.483 997.765 1005 776.72 1005 505.093C1005 228.899 781.142 5.00004 505 5.00002L502.413 5.00685C282.69 6.13767 105 151.236 105 330.06C105 509.586 284.086 655.121 505 655.121L505 355.065L380 355.065C395 355.065 405 385.071 405 405.074L405 470.524C316.705 443.514 255 381.831 255 310.057C255 214.144 365.186 136.25 501.768 135.039L505 135.024C709.345 135.024 875 300.71 875 505.093C875 520.629 874.041 535.942 872.182 550.975" stroke="#0b0e0c" stroke-width="10"/>
  <path d="M505.347 5.00195C221.517 12.2372 5.00005 233.282 5 504.909C4.99996 781.103 228.858 1005 505 1005L507.587 1005C727.31 1003.86 905 858.766 905 679.942C905 500.416 725.914 354.881 505 354.881L505 654.937L630 654.937C615 654.937 605 624.931 605 604.928L605 539.478C693.295 566.488 755 628.171 755 699.945C755 795.858 644.813 873.752 508.231 874.963L505 874.978C300.655 874.978 135 709.292 135 504.909C135 489.373 135.959 474.06 137.817 459.027" stroke="#0b0e0c" stroke-width="10"/>
</svg>
