<svg width="1010" height="1010" viewBox="0 0 1073 1110" fill="none" xmlns="http://www.w3.org/2000/svg">
<g id="logo">
<path id="fill_6" d="M505 1005C730 1005 905 855.78 905 680C905 634.116 893.295 590.454 872.182 550.874C874.041 535.843 875 520.534 875 505C875 300.655 709.345 135 505 135L501.768 135.015C365.187 136.226 255 214.105 255 310C255 381.761 316.705 443.433 405 470.438L405 405C405 385 395 355 380 355L505 355L505 655C284.086 655 105 509.493 105 330C105 151.209 282.69 6.13748 502.413 5.00688L505 5.00005C781.142 5.00007 1005 228.858 1005 505C1005 776.577 780 1005 505 1005Z">
<path id="fill_9" d="M505 5.00183C280 5.00179 105 154.222 105 330.002C105 375.886 116.704 419.548 137.817 459.128C135.959 474.158 135 489.468 135 505.002C135 709.347 300.655 875.002 505 875.002L508.231 874.987C644.813 873.776 755 795.897 755 700.002C755 628.241 693.295 566.569 605 539.564L605 605.002C605 625.002 615 655.002 630 655.002L505 655.002L505 355.002C725.914 355.002 905 500.509 905 680.002C905 858.793 727.31 1003.86 507.587 1004.99L505 1005C228.858 1005 4.99996 781.144 5 505.002C5.00005 233.425 230 5.00178 505 5.00183Z"/>
<path id="stroke_6" d="M872.183 550.975C874.041 535.942 875 520.629 875 505.093C875 300.709 709.345 135.024 505 135.024L501.768 135.039C365.187 136.25 255 214.144 255 310.056C255 381.831 316.705 443.514 405 470.524L405 405.074C405 385.07 395 355.065 380 355.065L505 355.065L505 655.121C284.086 655.121 105 509.586 105 330.06C105 151.236 282.69 6.13764 502.413 5.00682L505 4.99999C781.142 5.00001 1005 228.806 1005 505C1005 781.142 781.142 1005 505 1005"/>
<path id="stroke_9" d="M137.817 459.025C135.959 474.058 135 489.371 135 504.907C135 709.291 300.655 874.976 505 874.976L508.232 874.961C644.813 873.75 755 795.856 755 699.943C755 628.169 693.295 566.486 605 539.476V604.926C605 624.93 615 654.935 630 654.935H505V354.879C725.914 354.879 905 500.414 905 679.94C905 858.764 727.31 1003.86 507.587 1004.99L505 1005C228.858 1005 5 781.194 5 505C4.99998 228.858 228.858 5.00002 505 5"/>
<g id="group_shadows">
<path id="shadow_6" d="M273.159 205.001C242.979 236.483 225.367 274.391 225.367 315.184C225.367 400.412 302.244 473.041 409.999 500.801V545.001C293.597 515.518 209.999 434.515 209.999 339.205C209.999 288.574 233.59 241.979 273.159 205.001Z"/>
<path id="shadow_9" d="M736.84 805.002C767.02 773.519 784.632 735.612 784.632 694.818C784.632 609.591 707.755 536.961 600 509.202L600 465.002C716.402 494.484 800 575.487 800 670.797C800 721.429 776.409 768.024 736.84 805.002Z"/>
</g>
</g>
</svg>
